<svg width="144" height="144" viewBox="0 0 144 144" fill="none" xmlns="http://www.w3.org/2000/svg">
<g filter="url(#filter0_d_52_487)">
<rect x="32" y="16" width="80" height="80" rx="40" fill="#00A3CB"/>
</g>
<path d="M72.2334 61.1168V57.8501C72.2334 53.6501 75.6334 50.2334 79.8501 50.2334H83.1167" stroke="white" stroke-width="1.5" stroke-linecap="round" stroke-linejoin="round"/>
<path d="M61.3672 50.25H64.6339C68.8339 50.25 72.2506 53.65 72.2506 57.8667V58.95V64.75" stroke="white" stroke-width="1.5" stroke-linecap="round" stroke-linejoin="round"/>
<path d="M63.9004 47.25L60.9004 50.25L63.9004 53.25" stroke="white" stroke-width="1.5" stroke-linecap="round" stroke-linejoin="round"/>
<path d="M80.1006 47.25L83.1006 50.25L80.1006 53.25" stroke="white" stroke-width="1.5" stroke-linecap="round" stroke-linejoin="round"/>
<path d="M66.9997 72.6668H76.9997C85.333 72.6668 88.6663 69.3335 88.6663 61.0002V51.0002C88.6663 42.6668 85.333 39.3335 76.9997 39.3335H66.9997C58.6663 39.3335 55.333 42.6668 55.333 51.0002V61.0002C55.333 69.3335 58.6663 72.6668 66.9997 72.6668Z" stroke="white" stroke-width="1.5" stroke-linecap="round" stroke-linejoin="round"/>
<defs>
<filter id="filter0_d_52_487" x="0" y="0" width="144" height="144" filterUnits="userSpaceOnUse" color-interpolation-filters="sRGB">
<feFlood flood-opacity="0" result="BackgroundImageFix"/>
<feColorMatrix in="SourceAlpha" type="matrix" values="0 0 0 0 0 0 0 0 0 0 0 0 0 0 0 0 0 0 127 0" result="hardAlpha"/>
<feOffset dy="16"/>
<feGaussianBlur stdDeviation="16"/>
<feComposite in2="hardAlpha" operator="out"/>
<feColorMatrix type="matrix" values="0 0 0 0 0 0 0 0 0 0.282353 0 0 0 0 0.482353 0 0 0 0.25 0"/>
<feBlend mode="normal" in2="BackgroundImageFix" result="effect1_dropShadow_52_487"/>
<feBlend mode="normal" in="SourceGraphic" in2="effect1_dropShadow_52_487" result="shape"/>
</filter>
</defs>
</svg>
