<svg width="40" height="40" viewBox="0 0 40 40" fill="none" xmlns="http://www.w3.org/2000/svg">
<path d="M20.2334 25.1168V21.8501C20.2334 17.6501 23.6334 14.2334 27.8501 14.2334H31.1167" stroke="white" stroke-width="1.5" stroke-linecap="round" stroke-linejoin="round"/>
<path d="M9.36719 14.25H12.6339C16.8339 14.25 20.2506 17.65 20.2506 21.8667V22.95V28.75" stroke="white" stroke-width="1.5" stroke-linecap="round" stroke-linejoin="round"/>
<path d="M11.9004 11.25L8.90039 14.25L11.9004 17.25" stroke="white" stroke-width="1.5" stroke-linecap="round" stroke-linejoin="round"/>
<path d="M28.1006 11.25L31.1006 14.25L28.1006 17.25" stroke="white" stroke-width="1.5" stroke-linecap="round" stroke-linejoin="round"/>
<path d="M14.9997 36.6668H24.9997C33.333 36.6668 36.6663 33.3335 36.6663 25.0002V15.0002C36.6663 6.66683 33.333 3.3335 24.9997 3.3335H14.9997C6.66634 3.3335 3.33301 6.66683 3.33301 15.0002V25.0002C3.33301 33.3335 6.66634 36.6668 14.9997 36.6668Z" stroke="white" stroke-width="1.5" stroke-linecap="round" stroke-linejoin="round"/>
</svg>
