<svg width="80" height="80" viewBox="0 0 80 80" fill="none" xmlns="http://www.w3.org/2000/svg">
<rect width="80" height="80" rx="40" fill="#00A3CB" fill-opacity="0.05"/>
<path d="M56.6663 35.0002V45.0002C56.6663 49.1669 55.833 52.0835 53.9663 53.9669L43.333 43.3335L56.2164 30.4502C56.5164 31.7669 56.6663 33.2669 56.6663 35.0002Z" stroke="#00A3CB" stroke-width="1.5" stroke-linecap="round" stroke-linejoin="round"/>
<path d="M56.2164 30.4502L30.4497 56.2168C25.433 55.0668 23.333 51.6002 23.333 45.0002V35.0002C23.333 26.6668 26.6663 23.3335 34.9997 23.3335H44.9997C51.5997 23.3335 55.0664 25.4335 56.2164 30.4502Z" stroke="#00A3CB" stroke-width="1.5" stroke-linecap="round" stroke-linejoin="round"/>
<path d="M53.9669 53.9668C52.0836 55.8335 49.1669 56.6668 45.0002 56.6668H35.0002C33.2669 56.6668 31.7669 56.5168 30.4502 56.2168L43.3335 43.3335L53.9669 53.9668Z" stroke="#00A3CB" stroke-width="1.5" stroke-linecap="round" stroke-linejoin="round"/>
<path d="M30.4004 33.3002C31.5338 28.4169 38.8671 28.4169 40.0005 33.3002C40.6505 36.1669 38.8504 38.6002 37.2671 40.1002C36.1171 41.2002 34.3005 41.2002 33.1338 40.1002C31.5505 38.6002 29.7338 36.1669 30.4004 33.3002Z" stroke="#00A3CB" stroke-width="1.5"/>
<path d="M35.1582 34.4998H35.1731" stroke="#00A3CB" stroke-width="2" stroke-linecap="round" stroke-linejoin="round"/>
</svg>
