<svg width="80" height="80" viewBox="0 0 80 80" fill="none" xmlns="http://www.w3.org/2000/svg">
<rect width="80" height="80" rx="40" fill="#00A3CB" fill-opacity="0.05"/>
<path d="M48.9166 35.0835L45.0166 47.6501C44.0833 50.6335 39.9 50.6835 38.9166 47.7168L37.75 44.2668C37.4333 43.3168 36.6833 42.5502 35.7333 42.2502L32.2666 41.0835C29.3166 40.1001 29.3666 35.8835 32.35 34.9835L44.9166 31.0668C47.3833 30.3168 49.7 32.6335 48.9166 35.0835Z" stroke="#00A3CB" stroke-width="1.5" stroke-linecap="round" stroke-linejoin="round"/>
<path d="M34.9997 56.6668H44.9997C53.333 56.6668 56.6663 53.3335 56.6663 45.0002V35.0002C56.6663 26.6668 53.333 23.3335 44.9997 23.3335H34.9997C26.6663 23.3335 23.333 26.6668 23.333 35.0002V45.0002C23.333 53.3335 26.6663 56.6668 34.9997 56.6668Z" stroke="#00A3CB" stroke-width="1.5" stroke-linecap="round" stroke-linejoin="round"/>
</svg>
