<svg width="40" height="40" viewBox="0 0 40 40" fill="none" xmlns="http://www.w3.org/2000/svg">
<path d="M28.9166 15.0835L25.0166 27.6501C24.0833 30.6335 19.9 30.6835 18.9166 27.7168L17.75 24.2668C17.4333 23.3168 16.6833 22.5502 15.7333 22.2502L12.2666 21.0835C9.31662 20.1001 9.36662 15.8835 12.35 14.9835L24.9166 11.0668C27.3833 10.3168 29.7 12.6335 28.9166 15.0835Z" stroke="#00A3CB" stroke-width="1.5" stroke-linecap="round" stroke-linejoin="round"/>
<path d="M14.9997 36.6668H24.9997C33.333 36.6668 36.6663 33.3335 36.6663 25.0002V15.0002C36.6663 6.66683 33.333 3.3335 24.9997 3.3335H14.9997C6.66634 3.3335 3.33301 6.66683 3.33301 15.0002V25.0002C3.33301 33.3335 6.66634 36.6668 14.9997 36.6668Z" stroke="#00A3CB" stroke-width="1.5" stroke-linecap="round" stroke-linejoin="round"/>
</svg>
