<svg width="40" height="40" viewBox="0 0 40 40" fill="none" xmlns="http://www.w3.org/2000/svg">
<path d="M36.6663 15.0002V25.0002C36.6663 29.1669 35.833 32.0835 33.9663 33.9669L23.333 23.3335L36.2164 10.4502C36.5164 11.7669 36.6663 13.2669 36.6663 15.0002Z" stroke="#00A3CB" stroke-width="1.5" stroke-linecap="round" stroke-linejoin="round"/>
<path d="M36.2164 10.4502L10.4497 36.2168C5.43299 35.0668 3.33301 31.6002 3.33301 25.0002V15.0002C3.33301 6.66683 6.66634 3.3335 14.9997 3.3335H24.9997C31.5997 3.3335 35.0664 5.4335 36.2164 10.4502Z" stroke="#00A3CB" stroke-width="1.5" stroke-linecap="round" stroke-linejoin="round"/>
<path d="M33.9669 33.9668C32.0836 35.8335 29.1669 36.6668 25.0002 36.6668H15.0002C13.2669 36.6668 11.7669 36.5168 10.4502 36.2168L23.3335 23.3335L33.9669 33.9668Z" stroke="#00A3CB" stroke-width="1.5" stroke-linecap="round" stroke-linejoin="round"/>
<path d="M10.4004 13.3002C11.5338 8.41686 18.8671 8.41686 20.0005 13.3002C20.6505 16.1669 18.8504 18.6002 17.2671 20.1002C16.1171 21.2002 14.3005 21.2002 13.1338 20.1002C11.5505 18.6002 9.73377 16.1669 10.4004 13.3002Z" stroke="#00A3CB" stroke-width="1.5"/>
<path d="M15.1582 14.4998H15.1731" stroke="#00A3CB" stroke-width="2" stroke-linecap="round" stroke-linejoin="round"/>
</svg>
