<svg width="102" height="102" viewBox="0 0 102 102" fill="none" xmlns="http://www.w3.org/2000/svg">
<path d="M95.976 96.4008H5.23047V49.6179C5.23047 25.314 24.9307 5.65527 49.1931 5.65527H52.0134C76.3172 5.65527 95.976 25.314 95.976 49.6179V96.4008Z" stroke="#C5C5C8" stroke-width="1.9097" stroke-miterlimit="10"/>
<path d="M96.8054 100.756H4.44235C2.53454 100.756 1 99.221 1 97.3132V48.9128C1 22.7426 22.2348 1.50781 48.405 1.50781H52.8013C78.9715 1.50781 100.206 22.7426 100.206 48.9128V97.3132C100.206 99.221 98.6717 100.756 96.8054 100.756Z" stroke="#C5C5C8" stroke-width="1.9097" stroke-miterlimit="10"/>
<path d="M73.1238 52.5215C73.1238 65.0467 62.9626 75.2079 50.4374 75.2079C37.9122 75.2079 27.751 65.0467 27.751 52.5215H73.1238Z" stroke="#C5C5C8" stroke-width="1.9097" stroke-miterlimit="10"/>
<path d="M40.3182 52.5211L36.0049 42.4014" stroke="#C5C5C8" stroke-width="1.9097" stroke-miterlimit="10"/>
<path d="M27.751 46.549L45.7093 39.1251L33.1426 36.5537L27.751 46.549Z" stroke="#C5C5C8" stroke-width="1.9097" stroke-miterlimit="10"/>
<path d="M56.9482 52.5213L62.0081 36.5537L70.8421 37.5076" stroke="#C5C5C8" stroke-width="1.9097" stroke-miterlimit="10"/>
<path d="M31.5247 84.954H29.9072V91.9217H30.9855V89.3088H31.5247C32.603 89.3088 33.1422 88.6867 33.1422 87.5669V86.6545C33.1422 85.5762 32.603 84.954 31.5247 84.954ZM31.5247 85.9494C31.8565 85.9494 32.0639 86.1153 32.0639 86.613V87.6499C32.0639 88.1476 31.8565 88.3134 31.5247 88.3134H30.9855V85.9494H31.5247ZM38.0362 84.954H36.4187L35.2989 91.9217H36.3357L36.5016 90.636H37.8703L38.0362 91.9217H39.156L38.0362 84.954ZM37.1652 86.1983L37.7044 89.7236H36.626L37.1652 86.1983ZM45.0453 91.9217C44.9624 91.6729 44.9209 91.424 44.9209 91.0922V90.0139C44.9209 89.2674 44.755 88.7697 44.2158 88.5208C44.7135 88.272 44.9209 87.8158 44.9209 87.1107V86.5715C44.9209 85.4932 44.4232 84.954 43.3034 84.954H41.6444V91.9217H42.7642V89.1015H43.1375C43.6352 89.1015 43.8425 89.3088 43.8425 89.9724V91.0508C43.8425 91.6314 43.884 91.7558 43.9255 91.9217H45.0453ZM43.2619 85.9494C43.6767 85.9494 43.8425 86.1568 43.8425 86.6545V87.3595C43.8425 87.8987 43.5937 88.1061 43.179 88.1061H42.7642V85.9494H43.2619ZM50.0637 84.954H48.4462L47.3264 91.9217H48.3218L48.5291 90.6775H49.8563L50.0637 91.9217H51.1835L50.0637 84.954ZM49.1927 86.1983L49.7319 89.7236H48.6536L49.1927 86.1983ZM53.6719 91.9217H55.4139C56.4922 91.9217 57.0313 91.3411 57.0313 90.2213V86.696C57.0313 85.5762 56.4922 84.954 55.4139 84.954H53.6719V91.9217ZM55.3724 85.9494C55.7456 85.9494 55.953 86.1153 55.953 86.613V90.2627C55.953 90.7604 55.7456 90.9263 55.3724 90.9263H54.7917V85.9494H55.3724ZM59.6857 91.9217H60.8055V84.954H59.6857V91.9217ZM63.4598 86.613C63.4598 88.6038 65.575 88.8941 65.575 90.3042C65.575 90.8019 65.3677 91.0093 64.9944 91.0093C64.6626 91.0093 64.4552 90.8019 64.4552 90.3042V89.8065H63.4184V90.2627C63.4184 91.3825 63.9575 92.0047 65.0359 92.0047C66.1142 92.0047 66.6948 91.3825 66.6948 90.2627C66.6948 88.272 64.5382 87.9816 64.5382 86.5715C64.5382 86.0738 64.7455 85.8665 65.0773 85.8665C65.4506 85.8665 65.6165 86.0738 65.6165 86.5715V86.8619H66.6534V86.613C66.6534 85.4932 66.1142 84.8711 65.0359 84.8711C63.999 84.8711 63.4598 85.4932 63.4598 86.613ZM70.386 85.9494H72.2939V84.954H69.3077V91.9217H72.2939V90.9263H70.386V88.8941H71.8791V87.8987H70.386V85.9494Z" fill="#C5C5C8"/>
<path d="M27.8754 29.4614C27.9998 28.7563 28.0413 28.383 28.1242 27.6365C28.9122 27.8439 29.8247 27.8024 30.5712 27.6365C31.2348 27.4291 31.4422 27.2632 31.3592 27.0144C31.1518 26.1849 27.5436 27.9268 26.7971 25.5213C26.4238 24.2771 27.2533 22.9499 29.4929 22.3693C30.4883 22.0789 31.5666 22.0375 32.3961 22.2448C32.2717 22.9499 32.1887 23.3232 32.0643 24.0282C31.2624 23.8623 30.5574 23.8623 29.9491 24.0282C29.244 24.2356 29.0367 24.4845 29.1196 24.6918C29.327 25.4798 33.1011 23.8623 33.6403 26.3093C33.9306 27.5121 33.1011 28.7563 30.9859 29.2955C29.8661 29.6272 28.6634 29.6687 27.8754 29.4614Z" fill="#C5C5C8"/>
<path d="M34.0966 25.2729C33.7648 23.8213 33.6404 23.0747 33.3086 21.6231C34.304 21.4158 34.8017 21.2913 35.797 21.1254C36.0459 22.577 36.2118 23.2821 36.4606 24.7337C36.6265 25.7706 37.1242 26.0609 37.7878 25.9365C38.4514 25.8535 38.7832 25.3973 38.6173 24.3604C38.4099 22.9088 38.2855 22.2038 38.0781 20.7522C39.032 20.5863 39.5297 20.5033 40.5251 20.3789C40.7325 21.872 40.8154 22.6185 40.9813 24.1116C41.2302 26.1438 40.1518 27.4295 38.0781 27.7613C35.9629 28.1346 34.5113 27.2636 34.0966 25.2729Z" fill="#C5C5C8"/>
<path d="M48.5703 26.5581C48.5288 25.3139 48.4873 24.6917 48.4458 23.489C47.8652 24.4844 47.5749 24.982 47.0357 26.0189C46.621 26.0604 46.4136 26.0604 45.9989 26.1019C45.3353 25.1894 45.0035 24.7332 44.2984 23.8208C44.3814 25.0235 44.4643 25.6042 44.5473 26.8069C43.7178 26.8899 43.2616 26.9313 42.4321 27.0143C42.1418 24.3185 41.9759 22.9498 41.6855 20.254C42.515 20.1711 42.9298 20.1296 43.7593 20.0466C44.8376 21.4153 45.3767 22.0789 46.4136 23.489C47.2016 21.9959 47.6578 21.2494 48.5703 19.7563C49.3997 19.7563 49.8145 19.7148 50.644 19.7148C50.644 22.4521 50.6854 23.8208 50.6854 26.5166C49.856 26.5166 49.4412 26.5581 48.5703 26.5581Z" fill="#C5C5C8"/>
<path d="M57.9853 26.8484C58.0683 25.6042 58.1097 24.982 58.2342 23.7378C57.5291 24.6917 57.1558 25.1479 56.4922 26.1019C56.0775 26.0604 55.8701 26.0604 55.4554 26.0189C54.9162 25.065 54.6259 24.5673 54.0453 23.5719C54.0038 24.7747 54.0038 25.3968 53.9209 26.5996C53.0914 26.5581 52.6766 26.5581 51.8057 26.5166C51.8471 23.8208 51.8471 22.4521 51.8886 19.7148C52.7181 19.7563 53.1328 19.7563 53.9623 19.7563C54.8748 21.2494 55.331 21.9959 56.1605 23.489C57.1558 22.1203 57.695 21.4153 58.7733 20.0881C59.6028 20.1296 60.0175 20.171 60.847 20.2955C60.5152 22.9913 60.3908 24.3185 60.1005 27.0558C59.2295 26.9313 58.8148 26.8899 57.9853 26.8484Z" fill="#C5C5C8"/>
<path d="M67.2345 26.4337C67.0686 27.0973 67.0271 27.4291 66.8612 28.1341C64.6216 27.6779 63.5018 27.4706 61.2207 27.1802C61.5525 24.4844 61.7184 23.1157 62.0917 20.4199C64.4972 20.7517 65.6999 20.9591 68.1054 21.4153C67.981 22.1204 67.898 22.4522 67.7736 23.1157C66.3635 22.8254 65.6584 22.701 64.2483 22.4936C64.2068 22.8254 64.2068 22.9499 64.1239 23.2817C65.3681 23.489 65.9487 23.572 67.193 23.8208C67.0685 24.4844 66.9856 24.8162 66.8612 25.4383C65.6584 25.2309 65.0778 25.1065 63.875 24.8992C63.8336 25.2724 63.7921 25.4383 63.7506 25.8116C65.1193 26.0189 65.8243 26.1434 67.2345 26.4337Z" fill="#C5C5C8"/>
<path fill-rule="evenodd" clip-rule="evenodd" d="M71.0914 27.346C70.8425 27.2631 70.7181 27.2631 70.4693 27.1802C70.3034 27.8437 70.2204 28.1755 70.0545 28.8391C69.1421 28.6317 68.6859 28.5073 67.7734 28.2999C68.3541 25.6456 68.6444 24.3184 69.1836 21.6641C70.6352 21.9544 71.3402 22.1203 72.7503 22.4935C74.7826 23.0327 75.7779 24.4014 75.2803 25.8944C75.0314 26.8483 74.3264 27.3875 73.3725 27.5534C73.7457 28.5488 73.9116 29.005 74.2019 30.0004C73.248 29.7101 72.7503 29.5442 71.7964 29.2953C71.5061 28.5073 71.3817 28.134 71.0914 27.346ZM72.1282 24.194C71.7964 24.0696 71.5891 24.0281 71.2573 23.9451C71.0914 24.5673 71.0084 24.8991 70.884 25.5212C71.2158 25.6041 71.3817 25.6456 71.7135 25.7286C72.3771 25.8945 72.7918 25.6871 72.9162 25.1894C73.0407 24.7332 72.7918 24.3599 72.1282 24.194Z" fill="#C5C5C8"/>
<path d="M5.23047 81.6357H95.976" stroke="#C5C5C8" stroke-width="1.9097" stroke-miterlimit="10"/>
<path d="M10.9121 52.5215H91.3306" stroke="#C5C5C8" stroke-width="0.95485" stroke-miterlimit="10"/>
<path d="M72.502 57.7881H91.3312" stroke="#C5C5C8" stroke-width="0.95485" stroke-miterlimit="10"/>
<path d="M10.9121 57.7881H28.3727" stroke="#C5C5C8" stroke-width="0.95485" stroke-miterlimit="10"/>
<path d="M70.8428 63.0557H91.331" stroke="#C5C5C8" stroke-width="0.95485" stroke-miterlimit="10"/>
<path d="M10.9121 63.0557H29.8658" stroke="#C5C5C8" stroke-width="0.95485" stroke-miterlimit="10"/>
<path d="M67.5244 68.3643H91.3306" stroke="#C5C5C8" stroke-width="0.95485" stroke-miterlimit="10"/>
<path d="M10.9121 68.3643H34.1791" stroke="#C5C5C8" stroke-width="0.95485" stroke-miterlimit="10"/>
<path d="M59.5195 73.6318H91.3302" stroke="#C5C5C8" stroke-width="0.95485" stroke-miterlimit="10"/>
<path d="M10.9121 73.6318H42.0592" stroke="#C5C5C8" stroke-width="0.95485" stroke-miterlimit="10"/>
</svg>
