<svg width="92" height="103" viewBox="0 0 92 103" fill="none" xmlns="http://www.w3.org/2000/svg">
<path d="M23.4252 18.6172C10.488 26.3795 1.85059 40.5723 1.85059 56.7437C1.85059 81.3243 21.789 101.263 46.3696 101.263C70.9122 101.263 90.8506 81.3243 90.8506 56.7437C90.8506 40.5723 82.2131 26.4175 69.314 18.6172" stroke="#C5C5C8" stroke-width="1.72296" stroke-miterlimit="10"/>
<path d="M43.2878 12.3389C38.7598 12.6433 34.422 13.6326 30.3887 15.1927" stroke="#C5C5C8" stroke-width="1.72296" stroke-miterlimit="10"/>
<path d="M62.8459 15.383C58.9267 13.861 54.7792 12.8336 50.4414 12.4531" stroke="#C5C5C8" stroke-width="1.72296" stroke-miterlimit="10"/>
<path d="M49.6807 16.2959C52.0144 16.4988 54.2721 16.8793 56.4536 17.4374" stroke="#C5C5C8" stroke-width="1.72296" stroke-miterlimit="10"/>
<path d="M36.249 17.4375C38.253 16.9301 40.3077 16.575 42.4132 16.3721" stroke="#C5C5C8" stroke-width="1.72296" stroke-miterlimit="10"/>
<path d="M65.1657 20.8623C77.8365 27.5972 86.474 40.9529 86.474 56.2873C86.474 78.4326 68.5142 96.4305 46.3308 96.4305C24.1854 96.4305 6.22559 78.4326 6.22559 56.2873C6.22559 41.0671 14.7108 27.8255 27.2294 21.0145" stroke="#C5C5C8" stroke-width="1.72296" stroke-miterlimit="10"/>
<path d="M46.8651 30.6794L52.6868 1C52.6868 1 44.544 5.2997 42.7556 14.4699C40.9673 23.64 46.8651 30.6794 46.8651 30.6794Z" stroke="#C5C5C8" stroke-width="1.72296" stroke-linecap="round" stroke-linejoin="round"/>
<path d="M46.6357 31.0596L73.1189 16.4862C73.1189 16.4862 64.6336 12.9856 56.4528 17.5136C48.2339 22.0035 46.6357 31.0596 46.6357 31.0596Z" stroke="#C5C5C8" stroke-width="1.72296" stroke-linecap="round" stroke-linejoin="round"/>
<path d="M46.6357 31.3262L75.0975 41.5238C75.0975 41.5238 72.0915 32.8483 63.2638 29.6901C54.4741 26.5319 46.6357 31.3262 46.6357 31.3262Z" stroke="#C5C5C8" stroke-width="1.72296" stroke-linecap="round" stroke-linejoin="round"/>
<path d="M46.0651 31.0596L19.582 16.4862C19.582 16.4862 28.0673 12.9856 36.2481 17.5136C44.467 22.0035 46.0651 31.0596 46.0651 31.0596Z" stroke="#C5C5C8" stroke-width="1.72296" stroke-linecap="round" stroke-linejoin="round"/>
<path d="M46.0652 31.3262L17.6035 41.5238C17.6035 41.5238 20.6095 32.8483 29.3992 29.6901C38.2269 26.5319 46.0652 31.3262 46.0652 31.3262Z" stroke="#C5C5C8" stroke-width="1.72296" stroke-linecap="round" stroke-linejoin="round"/>
<path d="M23.654 79.3459H26.4317V73.2578H28.8288V71.127H21.2188V73.2578H23.654V79.3459ZM34.4603 79.3459H37.4282L35.716 76.8345C36.7053 76.3018 37.276 75.4267 37.276 74.2471C37.276 72.3446 35.7921 71.127 33.509 71.127H29.5518V79.3459H32.3295V77.2911H33.0905L34.4603 79.3459ZM34.4223 74.209C34.4223 74.8178 34.0798 75.1984 33.3188 75.1984H32.2914V73.2578H33.3188C34.0798 73.2578 34.4223 73.6002 34.4223 74.209ZM44.4295 79.3459H47.3214L43.7066 71.127H40.9669L37.3902 79.3459H40.2059L40.7386 77.8999H43.8968L44.4295 79.3459ZM41.4996 75.9213L42.2987 73.8666L43.0978 75.9213H41.4996ZM53.3333 71.127L51.3167 75.9213L49.338 71.127H46.3701L49.8327 79.3459H52.5723L56.073 71.127H53.3333ZM59.0409 77.2531V76.1877H62.5035V74.171H59.0409V73.2197H62.9981V71.127H56.3013V79.3459H63.1503V77.2531H59.0409ZM64.2158 79.3459H70.7224V77.215H66.9934V71.127H64.2158V79.3459Z" fill="#C5C5C8"/>
<path d="M36.134 87.3368V81.5912H37.3135V80.9443H34.2314V81.5912H35.411V87.3368H36.134ZM41.461 80.9443V87.3368H42.184V80.9443H41.461ZM49.9463 82.2V87.3368H50.6312V80.9443H49.6038L48.6145 86.0431L47.5491 80.9443H46.5598V87.3368H47.1686V82.238L48.234 87.3368H48.9189L49.9463 82.2ZM55.7299 83.7601V81.5912H57.6325V80.9443H55.007V87.3368H57.6325V86.6899H55.7299V84.4069H57.29V83.7601H55.7299Z" fill="#C5C5C8"/>
<path d="M15.3965 61.8428H77.3046" stroke="#C5C5C8" stroke-width="1.72296" stroke-miterlimit="10"/>
<path d="M75.0217 64.9629C71.2166 68.844 67.8682 64.9629 67.8682 64.9629C64.0251 68.844 60.6767 64.9629 60.6767 64.9629C56.8716 68.844 53.5232 64.9629 53.5232 64.9629C49.6801 68.844 46.3316 64.9629 46.3316 64.9629C42.5266 68.844 39.1782 64.9629 39.1782 64.9629C35.3351 68.844 31.9866 64.9629 31.9866 64.9629C28.1816 68.844 24.8331 64.9629 24.8331 64.9629C20.99 68.844 17.6416 64.9629 17.6416 64.9629" stroke="#C5C5C8" stroke-width="1.72296" stroke-miterlimit="10"/>
<path d="M42.6025 61.8425L45.0378 32.2012H47.3969L50.0985 61.8425H42.6025Z" stroke="#C5C5C8" stroke-width="1.72296" stroke-miterlimit="10"/>
<path d="M48.1582 43.8828C57.1381 44.796 64.1394 52.3681 64.1394 61.5763" stroke="#C5C5C8" stroke-width="1.72296" stroke-miterlimit="10"/>
<path d="M28.5625 61.5763C28.5625 52.5203 35.3355 45.0624 44.0871 43.9209" stroke="#C5C5C8" stroke-width="1.72296" stroke-miterlimit="10"/>
</svg>
