<svg width="101" height="98" viewBox="0 0 101 98" fill="none" xmlns="http://www.w3.org/2000/svg">
<path d="M51.5809 91.9307L8.88379 49.2676L51.5809 6.60449L94.244 49.2676L51.5809 91.9307Z" stroke="#C5C5C8" stroke-width="1.37589" stroke-miterlimit="10"/>
<path d="M51.5816 97.0255L3.6875 49.1314L51.5816 1.2373L99.4417 49.1314L51.5816 97.0255Z" stroke="#C5C5C8" stroke-width="1.37589" stroke-miterlimit="10"/>
<path d="M68.2934 41.6921C68.2934 50.8633 60.8545 58.3022 51.6833 58.3022C42.5121 58.3022 35.0732 50.8633 35.0732 41.6921C35.0732 32.5209 42.5121 25.082 51.6833 25.082C60.8545 25.082 68.2934 32.5209 68.2934 41.6921Z" stroke="#C5C5C8" stroke-width="1.37589" stroke-miterlimit="10"/>
<path d="M56.0993 72.3311H47.3018V67.3379H56.0993V72.3311Z" stroke="#C5C5C8" stroke-width="1.37589" stroke-miterlimit="10"/>
<path d="M37.2803 49.9131L47.3007 67.3384" stroke="#C5C5C8" stroke-width="1.37589" stroke-miterlimit="10"/>
<path d="M56.0986 67.3384L66.119 49.9131" stroke="#C5C5C8" stroke-width="1.37589" stroke-miterlimit="10"/>
<path d="M51.6832 25.082C51.6832 25.082 31.065 40.1636 51.6832 58.3022" stroke="#C5C5C8" stroke-width="1.37589" stroke-miterlimit="10"/>
<path d="M52.0225 25.082C52.0225 25.082 72.6747 40.1636 52.0225 58.3022" stroke="#C5C5C8" stroke-width="1.37589" stroke-miterlimit="10"/>
<path d="M4.87598 17.0323H7.2537V16.2171H5.79309V11.3257H4.87598V17.0323ZM10.1749 12.141H11.7374V11.3257H9.29174V17.0323H11.7374V16.2171H10.1749V14.5527H11.3977V13.7374H10.1749V12.141ZM13.6396 12.141H14.5907V17.0323H15.4738V12.141H16.4249V11.3257H13.6396V12.141ZM18.8026 12.1749L18.5648 12.9902H18.9045L19.3121 12.073V11.3257H18.4629V12.1749H18.8026ZM21.4521 12.6844C21.4521 14.3149 23.1844 14.5187 23.1844 15.7075C23.1844 16.1152 23.0146 16.251 22.7428 16.251C22.4371 16.251 22.2673 16.1152 22.2673 15.7075V15.2999H21.4181V15.6396C21.4181 16.5567 21.8597 17.1002 22.7428 17.1002C23.626 17.1002 24.1015 16.5567 24.1015 15.6396C24.1015 14.0092 22.3352 13.8054 22.3352 12.6165C22.3352 12.2089 22.5051 12.073 22.7768 12.073C23.0825 12.073 23.2184 12.2089 23.2184 12.6165V12.8543H24.0676V12.6844C24.0676 11.7673 23.626 11.2578 22.7428 11.2578C21.8937 11.2578 21.4521 11.7673 21.4521 12.6844Z" fill="#C5C5C8"/>
<path d="M74.1006 12.1404H75.0517V17.0317H75.9688V12.1404H76.8859V11.3252H74.1006V12.1404ZM81.7093 17.0317C81.6074 16.8279 81.6074 16.6241 81.6074 16.3524V15.4692C81.6074 14.8578 81.4715 14.4162 80.996 14.2464C81.4036 14.0426 81.6074 13.6689 81.6074 13.0915V12.6499C81.6074 11.7668 81.1998 11.3252 80.2826 11.3252H78.9239V17.0317H79.8071V14.7219H80.1128C80.5204 14.7219 80.7242 14.8918 80.7242 15.4353V16.3184C80.7242 16.794 80.7242 16.8959 80.7922 17.0317H81.7093ZM80.2487 12.1404C80.5544 12.1404 80.6903 12.3103 80.6903 12.7179V13.2953C80.6903 13.7369 80.4865 13.9067 80.1807 13.9067H79.8071V12.1404H80.2487ZM85.8194 11.3252H84.5286L83.6115 17.0317H84.4267L84.5965 15.9787H85.6835L85.8194 17.0317H86.7365L85.8194 11.3252ZM85.106 12.3442L85.5476 15.2315H84.6984L85.106 12.3442ZM89.2161 11.3252H88.3329L89.2161 17.0317H90.5408L91.424 11.3252H90.6087L89.8954 15.9787L89.2161 11.3252ZM94.3791 12.1404H95.9077V11.3252H93.462V17.0317H95.9077V16.2165H94.3791V14.5521H95.602V13.7369H94.3791V12.1404ZM98.1155 17.0317H100.493V16.2165H98.9987V11.3252H98.1155V17.0317Z" fill="#C5C5C8"/>
<path d="M2.70202 79.6004H1.41126L0.494141 85.3069H1.30936L1.44522 84.2539H2.56615L2.70202 85.3069H3.61914L2.70202 79.6004ZM1.98871 80.6194L2.43028 83.5066H1.58109L1.98871 80.6194ZM8.44252 85.3069C8.34062 85.1031 8.34061 84.8993 8.34061 84.6276V83.7444C8.34061 83.133 8.20474 82.7254 7.7292 82.5216C8.13681 82.3178 8.34061 81.9441 8.34061 81.3667V80.9251C8.34061 80.042 7.933 79.6004 6.98191 79.6004H5.65718V85.3069H6.54034V82.9971H6.84604C7.25365 82.9971 7.42349 83.1669 7.42349 83.7104V84.5936C7.42349 85.0691 7.45746 85.171 7.52539 85.3069H8.44252ZM6.98191 80.4156C7.28762 80.4156 7.42349 80.5854 7.42349 80.993V81.5705C7.42349 82.0121 7.21969 82.1819 6.88001 82.1819H6.54034V80.4156H6.98191ZM11.3977 80.9251C11.3977 80.5175 11.5675 80.3477 11.8393 80.3477C12.145 80.3477 12.3148 80.5175 12.3148 80.9251V83.9822C12.3148 84.3898 12.145 84.5596 11.8393 84.5596C11.5675 84.5596 11.3977 84.3898 11.3977 83.9822V80.9251ZM10.4806 83.9822C10.4806 84.8653 10.9901 85.4088 11.8393 85.4088C12.7224 85.4088 13.2319 84.8653 13.2319 83.9822V80.993C13.2319 80.0759 12.7224 79.5664 11.8393 79.5664C10.9901 79.5664 10.4806 80.0759 10.4806 80.993V83.9822ZM15.3719 79.6343V83.9822C15.3719 84.8993 15.8474 85.4428 16.7306 85.4428C17.6137 85.4428 18.0553 84.8993 18.0553 83.9822V79.6343H17.2061V84.0501C17.2061 84.4577 17.0363 84.5936 16.7645 84.5936C16.4588 84.5936 16.289 84.4577 16.289 84.0501V79.6343H15.3719ZM22.1993 85.3748H23.1164V79.6343H22.3352V83.065L21.4181 79.6343H20.2632V85.3748H21.0784V81.2308L22.1993 85.3748ZM25.3923 85.3748H26.8189C27.736 85.3748 28.1776 84.8653 28.1776 83.9482V81.061C28.1776 80.1439 27.736 79.6683 26.8189 79.6683H25.3923V85.3748ZM26.8189 80.4835C27.0906 80.4835 27.2605 80.6194 27.2605 81.027V83.9822C27.2605 84.3898 27.0906 84.5596 26.8189 84.5596H26.3094V80.4835H26.8189Z" fill="#C5C5C8"/>
<path d="M78.0761 85.3067H79.2649L79.9103 79.6002H79.1291L78.6535 84.1178L78.212 79.6002H77.3628L76.9212 84.0839L76.4456 79.6002H75.5625L76.2079 85.3067H77.4307L77.7704 82.2496L78.0761 85.3067ZM82.7976 80.9249C82.7976 80.5173 82.9674 80.3474 83.2731 80.3474C83.5449 80.3474 83.7147 80.5173 83.7147 80.9249V84.0159C83.7147 84.4235 83.5449 84.5594 83.2731 84.5594C82.9674 84.5594 82.7976 84.4235 82.7976 84.0159V80.9249ZM81.9144 83.948C81.9144 84.8651 82.39 85.3746 83.2731 85.3746C84.1563 85.3746 84.6318 84.8651 84.6318 83.948V80.9589C84.6318 80.0757 84.1563 79.5322 83.2731 79.5322C82.39 79.5322 81.9144 80.0757 81.9144 80.9589V83.948ZM89.625 85.3407C89.5231 85.1369 89.5231 84.933 89.5231 84.6273V83.7442C89.5231 83.1667 89.3872 82.7252 88.9457 82.5553C89.3193 82.3515 89.5231 81.9779 89.5231 81.4004V80.9249C89.5231 80.0417 89.1155 79.6341 88.1984 79.6341H86.8397V85.3407H87.7228V82.9969H88.0286C88.4362 82.9969 88.64 83.2007 88.64 83.7442V84.6273C88.64 85.1029 88.6739 85.1708 88.7079 85.3407H89.625ZM88.1644 80.4494C88.5041 80.4494 88.64 80.6192 88.64 81.0268V81.6042C88.64 82.0458 88.4361 82.1817 88.0965 82.1817H87.7228V80.4494H88.1644ZM91.765 85.3407H94.1427V84.5254H92.6481V79.6341H91.765V85.3407ZM96.1468 85.3407H97.5734C98.4905 85.3407 98.8981 84.8311 98.8981 83.914V81.0268C98.8981 80.1097 98.4905 79.6341 97.5734 79.6341H96.1468V85.3407ZM97.5734 80.4154C97.8451 80.4154 98.015 80.5852 98.015 80.9928V83.948C98.015 84.3556 97.8451 84.5254 97.5734 84.5254H97.0639V80.4154H97.5734Z" fill="#C5C5C8"/>
<path d="M84.3936 77.1544V73.7916H85.073V73.418H83.3066V73.7916H83.986V77.1544H84.3936ZM87.7564 75.49V77.1544H88.164V73.418H87.7564V75.1163H86.8393V73.418H86.4316V77.1544H86.8393V75.49H87.7564ZM90.1001 75.0824V73.7916H91.221V73.418H89.6586V77.1544H91.221V76.7807H90.1001V75.456H91.0173V75.0824H90.1001Z" fill="#C5C5C8"/>
<path d="M16.1191 49.165H36.6694" stroke="#C5C5C8" stroke-width="0.687943" stroke-miterlimit="10"/>
<path d="M65.9492 49.165H86.5335" stroke="#C5C5C8" stroke-width="0.687943" stroke-miterlimit="10"/>
<path d="M22.9131 55.585H40.8139" stroke="#C5C5C8" stroke-width="0.687943" stroke-miterlimit="10"/>
<path d="M29.7402 62.0049H73.4903" stroke="#C5C5C8" stroke-width="0.687943" stroke-miterlimit="10"/>
<path d="M36.6689 68.9688H47.1309" stroke="#C5C5C8" stroke-width="0.687943" stroke-miterlimit="10"/>
<path d="M42.9873 74.5391H61.058" stroke="#C5C5C8" stroke-width="0.687943" stroke-miterlimit="10"/>
<path d="M47.5732 80.1094H55.7934" stroke="#C5C5C8" stroke-width="0.687943" stroke-miterlimit="10"/>
<path d="M55.8271 68.9688H66.2551" stroke="#C5C5C8" stroke-width="0.687943" stroke-miterlimit="10"/>
<path d="M62.5869 55.585H80.4878" stroke="#C5C5C8" stroke-width="0.687943" stroke-miterlimit="10"/>
</svg>
