<svg width="79" height="102" viewBox="0 0 79 102" fill="none" xmlns="http://www.w3.org/2000/svg">
<path d="M40.3318 96.58H38.247C20.3179 96.58 5.79395 82.0561 5.79395 64.127V38.1367C5.79395 20.2076 20.3179 5.68359 38.247 5.68359H40.3318C58.2609 5.68359 72.7849 20.2076 72.7849 38.1367V64.127C72.7849 82.0561 58.2609 96.58 40.3318 96.58Z" stroke="#C5C5C8" stroke-width="1.38985" stroke-miterlimit="10"/>
<path d="M39.4986 101.132H39.0817C18.1296 101.132 1.13867 84.1409 1.13867 63.1888V39.0748C1.13867 18.1228 18.1296 1.13184 39.0817 1.13184H39.4986C60.4507 1.13184 77.4416 18.1228 77.4416 39.0748V63.1888C77.4416 84.1409 60.4507 101.132 39.4986 101.132Z" stroke="#C5C5C8" stroke-width="1.38985" stroke-miterlimit="10"/>
<path d="M59.0256 66.1774H32.9659L27.0938 45.1211H53.1883L59.0256 66.1774Z" stroke="#C5C5C8" stroke-width="1.38985" stroke-linecap="round" stroke-linejoin="round"/>
<path d="M32.9661 66.1774H26.4338M26.4338 66.1774L27.094 45.1211L20.0752 66.1774H26.4338Z" stroke="#C5C5C8" stroke-width="1.38985" stroke-linecap="round" stroke-linejoin="round"/>
<path d="M13.9248 66.1771V41.7852" stroke="#C5C5C8" stroke-width="1.38985" stroke-linecap="round" stroke-linejoin="round"/>
<path d="M10.2773 48.0745L13.9257 45.1211L17.8173 48.0745" stroke="#C5C5C8" stroke-width="1.38985" stroke-linecap="round" stroke-linejoin="round"/>
<path d="M10.2773 43.9398L13.9257 40.9863L17.8173 43.9398" stroke="#C5C5C8" stroke-width="1.38985" stroke-linecap="round" stroke-linejoin="round"/>
<path d="M10.2773 52.9036L13.9257 49.9502L17.8173 52.9036" stroke="#C5C5C8" stroke-width="1.38985" stroke-linecap="round" stroke-linejoin="round"/>
<path d="M10.2773 57.0731L13.9257 54.085L17.8173 57.0731" stroke="#C5C5C8" stroke-width="1.38985" stroke-linecap="round" stroke-linejoin="round"/>
<path d="M63.4395 66.1771V41.7852" stroke="#C5C5C8" stroke-width="1.38985" stroke-linecap="round" stroke-linejoin="round"/>
<path d="M59.79 48.0745L63.4384 45.1211L67.33 48.0745" stroke="#C5C5C8" stroke-width="1.38985" stroke-linecap="round" stroke-linejoin="round"/>
<path d="M59.79 43.9398L63.4384 40.9863L67.33 43.9398" stroke="#C5C5C8" stroke-width="1.38985" stroke-linecap="round" stroke-linejoin="round"/>
<path d="M59.79 52.9036L63.4384 49.9502L67.33 52.9036" stroke="#C5C5C8" stroke-width="1.38985" stroke-linecap="round" stroke-linejoin="round"/>
<path d="M59.79 57.0731L63.4384 54.085L67.33 57.0731" stroke="#C5C5C8" stroke-width="1.38985" stroke-linecap="round" stroke-linejoin="round"/>
<path d="M17.8164 48.0745L28.2403 35.0794L32.3751 38.9362L39.4286 31.709L46.5864 38.693L50.5127 34.9751L59.79 48.0745" stroke="#C5C5C8" stroke-width="1.38985" stroke-linecap="round" stroke-linejoin="round"/>
<path d="M18.9636 72.7441H17.6085L16.7051 78.5815H17.539L17.678 77.5044H18.8246L18.9636 78.5815H19.9017L18.9636 72.7441ZM18.2339 73.7865L18.6856 76.74H17.817L18.2339 73.7865ZM21.9518 78.5815H23.4111C24.3493 78.5815 24.801 78.0603 24.801 77.1569V74.2035C24.801 73.2653 24.3493 72.7441 23.4111 72.7441H21.9518V78.5815ZM23.4111 73.578C23.6891 73.578 23.8628 73.717 23.8628 74.134V77.1917C23.8628 77.6086 23.6891 77.7476 23.4111 77.7476H22.8899V73.578H23.4111ZM27.7197 72.7441H26.7815L27.6849 78.5815H29.0748L29.9782 72.7441H29.1095L28.4146 77.5044L27.7197 72.7441ZM33.0011 73.578H34.5647V72.7441H32.063V78.5815H34.5647V77.7476H33.0011V76.045H34.252V75.2111H33.0011V73.578ZM38.769 78.5815H39.7072V72.7441H38.908V76.2535L37.9351 72.7441H36.7885V78.5815H37.6224V74.3425L38.769 78.5815ZM41.7919 73.578H42.7301V78.5815H43.6682V73.578H44.6064V72.7441H41.7919V73.578ZM46.6564 72.7441V77.1917C46.6564 78.1298 47.1081 78.651 48.0115 78.651C48.9149 78.651 49.3666 78.1298 49.3666 77.1917V72.7441H48.498V77.2612C48.498 77.6781 48.3243 77.8171 48.0463 77.8171C47.7336 77.8171 47.5598 77.6781 47.5598 77.2612V72.7441H46.6564ZM54.5439 78.5815C54.4396 78.373 54.4396 78.1646 54.4396 77.8866V76.9832C54.4396 76.3578 54.3006 75.9408 53.8489 75.7323C54.2311 75.5586 54.4396 75.1416 54.4396 74.551V74.0992C54.4396 73.1958 54.0227 72.7441 53.0845 72.7441H51.6946V78.5815H52.5981V76.2188H52.9108C53.3277 76.2188 53.5362 76.4272 53.5362 76.9484V77.8866C53.5362 78.3383 53.571 78.4425 53.6057 78.5815H54.5439ZM53.0498 73.578C53.3625 73.578 53.5015 73.7518 53.5015 74.1687V74.7594C53.5015 75.2111 53.293 75.3849 52.9803 75.3849H52.5981V73.578H53.0498ZM57.6363 73.578H59.2346V72.7441H56.7329V78.5815H59.2346V77.7476H57.6363V76.045H58.8871V75.2111H57.6363V73.578Z" fill="#C5C5C8"/>
<path d="M20.7359 28.338C21.8825 28.338 22.7859 27.9211 23.3419 27.1566L22.1257 26.0448C21.7783 26.4965 21.3613 26.7397 20.8401 26.7397C20.0062 26.7397 19.485 26.1837 19.485 25.2803C19.485 24.3769 20.0062 23.821 20.8401 23.821C21.3613 23.821 21.7783 24.0642 22.1257 24.5159L23.3419 23.404C22.7859 22.6396 21.8825 22.2227 20.7359 22.2227C18.8596 22.2227 17.4697 23.4735 17.4697 25.2803C17.4697 27.0871 18.8596 28.338 20.7359 28.338ZM28.2063 28.199H30.2564L27.6852 22.3617H25.7741L23.2029 28.199H25.2182L25.6004 27.1914H27.8241L28.2063 28.199ZM26.1216 25.7668L26.7123 24.2727L27.2682 25.7668H26.1216ZM37.5531 28.199L37.5184 22.3617H35.92L34.0437 25.4541L32.1674 22.3617H30.5344V28.199H32.3412V25.6278L33.592 27.6778H34.4607L35.7463 25.5236V28.199H37.5531ZM41.3057 22.3617H38.526V28.199H40.4718V26.7397H41.3057C42.9388 26.7397 43.9812 25.9058 43.9812 24.5507C43.9812 23.1956 42.9388 22.3617 41.3057 22.3617ZM41.2015 25.2456H40.4718V23.8557H41.2015C41.7227 23.8557 42.0006 24.1337 42.0006 24.5507C42.0006 24.9676 41.7227 25.2456 41.2015 25.2456ZM44.6066 28.199H46.5872V22.3617H44.6066V28.199ZM51.3822 22.3617V25.0024L49.1584 22.3617H47.5253V28.199H49.4711V25.5236L51.6601 28.199H53.2932V22.3617H51.3822ZM58.1229 26.6007C57.8797 26.7049 57.6365 26.7397 57.3933 26.7397C56.5594 26.7397 56.0034 26.149 56.0034 25.2803C56.0034 24.3769 56.5594 23.821 57.428 23.821C57.9492 23.821 58.3662 24.0295 58.7136 24.4464L59.9993 23.3345C59.4086 22.6049 58.4704 22.2227 57.3238 22.2227C55.378 22.2227 54.0229 23.4735 54.0229 25.2803C54.0229 27.0524 55.378 28.338 57.289 28.338C58.123 28.338 59.1306 28.0601 59.8255 27.5736V25.1066H58.1229V26.6007Z" fill="#C5C5C8"/>
</svg>
