<svg width="83" height="102" viewBox="0 0 83 102" fill="none" xmlns="http://www.w3.org/2000/svg">
<path d="M77.7732 82.3191L41.4397 95.8935L5.06934 82.3191V5.2627H77.7732V82.3191Z" stroke="#C5C5C8" stroke-width="1.40596" stroke-miterlimit="10"/>
<path d="M81.7563 85.5287L41.4391 101.132L1.08496 85.5287V1.13184H81.7563V85.5287Z" stroke="#C5C5C8" stroke-width="1.40596" stroke-miterlimit="10"/>
<path d="M17.8687 30.8989C20.3401 30.8989 21.5943 29.6817 21.5943 28.2062C21.5943 25.2552 17.2048 26.0667 17.2048 25.1077C17.2048 24.8495 17.4261 24.5913 18.2376 24.5913C18.9015 24.5913 19.6762 24.8126 20.4508 25.1815L21.2623 23.2633C20.4139 22.7838 19.3073 22.5625 18.2376 22.5625C15.7662 22.5625 14.5489 23.7798 14.5489 25.2552C14.5489 28.2062 18.9384 27.3947 18.9384 28.4275C18.9384 28.6857 18.6802 28.8333 17.9056 28.8333C17.0203 28.8333 16.0244 28.575 15.2866 28.1324L14.4014 30.0874C15.2129 30.5669 16.5408 30.8989 17.8687 30.8989ZM26.2051 30.8989C28.6765 30.8989 30.1151 29.5341 30.1151 27.1365V22.7469H27.4593V27.0627C27.4593 28.28 26.9797 28.7226 26.242 28.7226C25.4674 28.7226 25.0247 28.28 25.0247 27.0627V22.7469H22.332V27.1365C22.332 29.5341 23.7706 30.8989 26.2051 30.8989ZM40.8861 30.7145V22.7469H38.6729L36.1277 26.9889L33.5456 22.7469H31.3324V30.7145H33.7669V27.2102L35.5006 30.0136H36.681L38.4146 27.0627L38.4515 30.7145H40.8861ZM51.7677 30.7145L51.7308 22.7469H49.5175L47.0093 26.9889L44.3903 22.7469H42.1771V30.7145H44.6485V27.2102L46.3822 30.0136H47.5625L49.2962 27.0627V30.7145H51.7677ZM55.7145 28.6857V27.6529H59.1081V25.6979H55.7145V24.7757H59.5507V22.7469H53.0956V30.7145H59.6983V28.6857H55.7145ZM65.5264 30.7145H68.4036L66.7437 28.2431C67.6658 27.7635 68.2191 26.8783 68.2191 25.7348C68.2191 23.8904 66.8174 22.7469 64.6042 22.7469H60.768V30.7145H63.4608V28.7226H64.1616L65.5264 30.7145ZM65.5264 25.7348C65.5264 26.325 65.1575 26.6569 64.4198 26.6569H63.4608V24.8126H64.4198C65.1575 24.8126 65.5264 25.1446 65.5264 25.7348Z" fill="#C5C5C8"/>
<path fill-rule="evenodd" clip-rule="evenodd" d="M18.7166 72.1388C18.4215 72.5446 18.3108 72.729 18.0158 73.0979C17.7575 72.9872 17.6469 72.9134 17.3887 72.8028C18.8273 70.9584 19.5281 70.0363 20.856 68.1182C21.2249 68.2657 21.4093 68.3395 21.7413 68.487C21.2987 70.774 21.0773 71.9175 20.7085 74.2414C20.4503 74.1307 20.3027 74.0938 20.0445 73.9832C20.1183 73.5036 20.1552 73.2823 20.229 72.8028C19.6388 72.5446 19.3068 72.4339 18.7166 72.1388ZM19.0117 71.6962C19.565 71.9175 19.8232 72.0282 20.3396 72.2495C20.5978 70.9216 20.7085 70.2945 21.0036 68.9666C20.2289 70.0732 19.8232 70.6265 19.0117 71.6962Z" fill="#C5C5C8"/>
<path fill-rule="evenodd" clip-rule="evenodd" d="M26.4633 70.221C27.3117 70.4792 27.6068 71.1062 27.3486 71.9546C27.0535 73.0612 26.869 73.6145 26.5739 74.7211C26.3526 75.5695 25.7255 75.9753 24.7665 75.6802C24.1763 75.4958 23.8812 75.3851 23.291 75.2007C24.0288 73.0244 24.3976 71.9546 25.1354 69.7783C25.6518 69.9628 25.91 70.0365 26.4633 70.221ZM24.914 75.1269C25.4305 75.2744 25.7255 75.0531 25.8731 74.5736C26.2051 73.4301 26.3895 72.8768 26.7215 71.7333C26.869 71.2538 26.7215 70.9218 26.242 70.7743C25.9837 70.6636 25.8362 70.6267 25.578 70.5529C25.0247 72.2866 24.7296 73.135 24.1763 74.8687C24.4714 74.9794 24.6189 75.0162 24.914 75.1269Z" fill="#C5C5C8"/>
<path d="M30.6685 71.3272C30.6316 73.356 30.6316 74.3519 30.6685 76.3807C31.4431 74.5364 31.8488 73.5773 32.5497 71.6961C32.8079 71.733 32.9185 71.7699 33.1399 71.8068C32.3284 73.9831 31.9226 75.0528 31.0004 77.2291C30.5947 77.1185 30.3733 77.0816 29.9676 77.0078C29.9307 74.6839 29.9676 73.5036 30.0414 71.1797C30.2996 71.2535 30.4102 71.2535 30.6685 71.3272Z" fill="#C5C5C8"/>
<path d="M37.4563 74.8683C37.4194 75.0896 37.4194 75.2003 37.3826 75.4216C36.7924 75.3847 36.4973 75.3478 35.8702 75.274C35.7964 76.0856 35.7595 76.4913 35.6857 77.3028C36.4604 77.3766 36.8292 77.4135 37.6039 77.4873C37.6039 77.7086 37.567 77.8192 37.567 78.0406C36.4973 77.9668 35.944 77.9299 34.9111 77.8192C35.1693 75.5323 35.28 74.3888 35.5382 72.1387C36.4973 72.2493 36.9768 72.2862 37.9727 72.36C37.9358 72.5813 37.9358 72.692 37.899 72.9133C37.1981 72.8764 36.8661 72.8395 36.1284 72.7658C36.0546 73.5404 36.0177 73.9461 35.944 74.7207C36.5341 74.7945 36.8293 74.7945 37.4563 74.8683Z" fill="#C5C5C8"/>
<path d="M40.9962 78.1879C40.738 78.1879 40.6273 78.1879 40.3691 78.1879C40.406 75.901 40.406 74.7575 40.4798 72.4705C40.8118 72.4705 40.9593 72.4705 41.2913 72.4705C41.8446 74.1304 42.1397 74.9419 42.7668 76.6018C42.693 74.9419 42.693 74.0935 42.6561 72.4705C42.8774 72.4336 42.9881 72.4336 43.2094 72.4336C43.3201 74.7206 43.357 75.8641 43.4307 78.151C43.1356 78.151 42.9881 78.151 42.693 78.151C41.9553 76.3436 41.6602 75.4214 41.0331 73.5771C41.0331 75.4214 41.0331 76.3436 40.9962 78.1879Z" fill="#C5C5C8"/>
<path d="M47.2671 77.8931C47.0458 75.8274 46.9351 74.8315 46.7138 72.7658C46.2712 72.8396 46.0867 72.8396 45.6441 72.8765C45.6072 72.6552 45.6072 72.5445 45.5703 72.2863C46.7138 72.2125 47.2671 72.1388 48.3737 71.9912C48.4106 72.2125 48.4475 72.3232 48.4475 72.5814C48.0417 72.6183 47.8204 72.6552 47.3778 72.6921C47.636 74.7577 47.7466 75.7537 47.968 77.7824C47.6729 77.8193 47.5253 77.8562 47.2671 77.8931Z" fill="#C5C5C8"/>
<path d="M52.2096 75.7908C52.2834 76.2704 52.5785 76.5286 53.0949 76.4179C53.6113 76.3073 53.7589 75.9753 53.6482 75.4589C53.2793 73.7621 53.058 72.9137 52.6892 71.2169C52.9105 71.1431 53.058 71.1062 53.2793 71.0693C53.6851 72.7661 53.9064 73.5776 54.3122 75.2744C54.4966 76.1228 54.2015 76.7868 53.2056 77.0081C52.2096 77.2294 51.6563 76.713 51.5088 75.8646C51.1768 74.1678 51.0292 73.3194 50.6973 71.6226C50.9555 71.5858 51.103 71.5489 51.3612 71.4751C51.6932 73.2088 51.8408 74.0572 52.2096 75.7908Z" fill="#C5C5C8"/>
<path fill-rule="evenodd" clip-rule="evenodd" d="M57.0432 69.9995C57.9285 69.7044 58.4449 69.9995 58.74 70.811C58.7769 70.9955 58.8138 71.0692 58.8876 71.2537C59.1089 71.8439 58.9982 72.2865 58.5187 72.6185C59.1458 72.5816 59.4777 72.9136 59.6622 73.4669C59.8097 73.7989 59.8466 73.9833 59.9573 74.3153C60.0679 74.5735 60.1417 74.7948 60.3262 74.9055C60.0311 75.0161 59.9204 75.053 59.6253 75.1637C59.4777 75.053 59.404 74.9055 59.2933 74.5366C59.1826 74.2046 59.1089 74.0571 58.9982 73.6882C58.7769 73.098 58.408 72.9874 57.8547 73.1718C57.6703 73.2456 57.5596 73.2825 57.3752 73.3193C57.6703 74.2784 57.8179 74.721 58.1129 75.6801C57.8179 75.7539 57.6703 75.7908 57.4121 75.8645C56.7481 73.6882 56.4161 72.5816 55.7891 70.4053C56.2686 70.2577 56.5268 70.184 57.0432 69.9995ZM57.7072 72.6185C58.2236 72.471 58.4818 72.1759 58.2974 71.6226C58.2236 71.4012 58.1867 71.2906 58.1129 71.1061C57.9654 70.5897 57.6703 70.4053 57.1908 70.5528C56.9695 70.6266 56.8219 70.7004 56.6006 70.7742C56.8219 71.5857 56.9695 71.9545 57.1908 72.766C57.4121 72.7292 57.4859 72.6923 57.7072 72.6185Z" fill="#C5C5C8"/>
<path d="M63.7923 70.0732C63.8661 70.2945 63.9399 70.4052 64.0136 70.5896C63.4603 70.8478 63.1652 70.9954 62.6119 71.2167C62.907 71.9913 63.0915 72.3602 63.3866 73.0979C64.1243 72.8028 64.4931 72.6184 65.194 72.2864C65.3046 72.5077 65.3415 72.6184 65.4522 72.8028C64.4563 73.2823 63.9398 73.5037 62.9439 73.9094C62.0586 71.8069 61.6529 70.7372 60.7676 68.6346C61.6897 68.2657 62.1324 68.0813 63.0177 67.6387C63.1283 67.86 63.1652 67.9707 63.2759 68.1551C62.6119 68.4871 62.28 68.6346 61.616 68.9297C61.9111 69.6306 62.0586 69.9994 62.3906 70.7003C62.9439 70.4789 63.2021 70.3314 63.7923 70.0732Z" fill="#C5C5C8"/>
<path d="M28.3076 49.712C28.3076 42.4822 34.1726 36.6172 41.4393 36.6172C48.6691 36.6172 54.5341 42.4822 54.5341 49.712" stroke="#C5C5C8" stroke-width="1.40596" stroke-miterlimit="10"/>
<path d="M10.9707 49.7119H71.9076" stroke="#C5C5C8" stroke-width="1.40596" stroke-miterlimit="10"/>
<path d="M32.5127 63.9873H50.3659" stroke="#C5C5C8" stroke-width="1.40596" stroke-miterlimit="10"/>
<path d="M21.3359 59.1543H61.5056" stroke="#C5C5C8" stroke-width="1.40596" stroke-miterlimit="10"/>
<path d="M16.2451 54.8018H66.5955" stroke="#C5C5C8" stroke-width="1.40596" stroke-miterlimit="10"/>
</svg>
