<svg width="89" height="102" viewBox="0 0 89 102" fill="none" xmlns="http://www.w3.org/2000/svg">
<path d="M84.7351 74.2172V28.0084L44.7201 4.92285L4.70508 28.0084V74.2172L44.7201 97.3403L84.7351 74.2172Z" stroke="#C5C5C8" stroke-width="1.5015" stroke-miterlimit="10"/>
<path d="M87.9995 76.1318V26.1318L44.7187 1.13184L1.40039 26.1318V76.1318L44.7187 101.132L87.9995 76.1318Z" stroke="#C5C5C8" stroke-width="1.5015" stroke-miterlimit="10"/>
<path d="M27.5649 32.9635H29.667V28.3089H31.5439V26.6572H25.7256V28.3089H27.5649V32.9635ZM35.8607 32.9635H38.113L36.7992 31.0116C37.5499 30.6362 38.0004 29.9605 38.0004 29.0221C38.0004 27.5581 36.8742 26.6572 35.11 26.6572H32.0694V32.9635H34.2091V31.3869H34.7721L35.8607 32.9635ZM35.8607 29.0221C35.8607 29.4725 35.598 29.7728 34.9974 29.7728H34.2091V28.2713H34.9974C35.598 28.2713 35.8607 28.5716 35.8607 29.0221ZM43.5184 32.9635H45.7331L42.9553 26.6572H40.8908L38.113 32.9635H40.2902L40.7031 31.8374H43.1055L43.5184 32.9635ZM41.2661 30.3359L41.9043 28.7593L42.5049 30.3359H41.2661ZM50.3502 26.6572L48.7736 30.3734L47.2721 26.6572H44.9824L47.6475 32.9635H49.7496L52.4148 26.6572H50.3502ZM54.7421 31.3869V30.5611H57.4073V29.0221H54.7421V28.2713H57.7827V26.6572H52.64V32.9635H57.8953V31.3869H54.7421ZM58.7211 32.9635H63.6761V31.3119H60.8607V26.6572H58.7211V32.9635Z" fill="#C5C5C8"/>
<path d="M34.7348 78.0085H36.8745V73.3538H38.7138V71.7021H32.8955V73.3538H34.7348V78.0085ZM39.2769 78.0085H41.379V71.7021H39.2769V78.0085ZM49.9751 78.0085V71.7021H48.2108L46.2213 75.043L44.1568 71.7021H42.43V78.0085H44.3445V75.2307L45.7334 77.4454H46.6718L48.0231 75.1181L48.0607 78.0085H49.9751ZM53.0907 76.3943V75.5685H55.7559V74.0295H53.0907V73.3163H56.1312V71.7021H50.9886V78.0085H56.2439V76.3943H53.0907Z" fill="#C5C5C8"/>
<path d="M15.8906 65.5086L26.9266 51.9951L33.9837 61.0417" stroke="#C5C5C8" stroke-width="1.5015" stroke-miterlimit="10"/>
<path d="M56.2812 60.8916L63.2632 52.333L73.5485 65.5087" stroke="#C5C5C8" stroke-width="1.5015" stroke-miterlimit="10"/>
<path d="M30.3047 65.5089L45.4699 47.0029L59.8843 65.5089" stroke="#C5C5C8" stroke-width="1.5015" stroke-miterlimit="10"/>
<path d="M36.6111 57.8506C34.0961 55.5984 32.5195 52.3326 32.5195 48.729C32.5195 41.9722 37.9625 36.5293 44.7192 36.5293C51.4385 36.5293 56.9189 41.9722 56.9189 48.729C56.9189 52.0323 55.6051 55.0353 53.4279 57.25" stroke="#C5C5C8" stroke-width="1.5015" stroke-miterlimit="10"/>
<path d="M15.7402 67.573V41.2217" stroke="#C5C5C8" stroke-width="1.5015" stroke-linecap="round" stroke-linejoin="round"/>
<path d="M11.7988 48.0163L15.7403 44.7881L19.9445 48.0163" stroke="#C5C5C8" stroke-width="1.5015" stroke-linecap="round" stroke-linejoin="round"/>
<path d="M11.7988 43.512L15.7403 40.3213L19.9445 43.512" stroke="#C5C5C8" stroke-width="1.5015" stroke-linecap="round" stroke-linejoin="round"/>
<path d="M11.7988 53.2337L15.7403 50.043L19.9445 53.2337" stroke="#C5C5C8" stroke-width="1.5015" stroke-linecap="round" stroke-linejoin="round"/>
<path d="M11.7988 57.7005L15.7403 54.5098L19.9445 57.7005" stroke="#C5C5C8" stroke-width="1.5015" stroke-linecap="round" stroke-linejoin="round"/>
<path d="M73.3975 67.573V41.2217" stroke="#C5C5C8" stroke-width="1.5015" stroke-linecap="round" stroke-linejoin="round"/>
<path d="M69.4561 48.0163L73.3975 44.7881L77.6017 48.0163" stroke="#C5C5C8" stroke-width="1.5015" stroke-linecap="round" stroke-linejoin="round"/>
<path d="M69.4561 43.512L73.3975 40.3213L77.6017 43.512" stroke="#C5C5C8" stroke-width="1.5015" stroke-linecap="round" stroke-linejoin="round"/>
<path d="M69.4561 53.2337L73.3975 50.043L77.6017 53.2337" stroke="#C5C5C8" stroke-width="1.5015" stroke-linecap="round" stroke-linejoin="round"/>
<path d="M69.4561 57.7005L73.3975 54.5098L77.6017 57.7005" stroke="#C5C5C8" stroke-width="1.5015" stroke-linecap="round" stroke-linejoin="round"/>
</svg>
