<svg width="14" height="12" viewBox="0 0 14 12" fill="none" xmlns="http://www.w3.org/2000/svg">
<path d="M3.34878 8.4C3.41295 8.106 3.29628 7.686 3.09211 7.476L1.67461 6.018C1.23128 5.562 1.05628 5.076 1.18461 4.656C1.31878 4.236 1.73295 3.948 2.35128 3.84L4.17128 3.528C4.43378 3.48 4.75461 3.24 4.87711 2.994L5.88045 0.924C6.17211 0.33 6.56878 0 7.00045 0C7.43211 0 7.82878 0.33 8.12045 0.924L9.12378 2.994C9.19961 3.15 9.35711 3.3 9.52628 3.402L3.24378 9.864C3.16211 9.948 3.02211 9.87 3.04545 9.75L3.34878 8.4Z" fill="#E76A43"/>
<path d="M10.9078 7.47594C10.6978 7.69194 10.5811 8.10594 10.6511 8.39994L11.0536 10.2059C11.2228 10.9559 11.1178 11.5199 10.7561 11.7899C10.6103 11.8979 10.4353 11.9519 10.2311 11.9519C9.93365 11.9519 9.58365 11.8379 9.19865 11.6039L7.48948 10.5599C7.22115 10.3979 6.77781 10.3979 6.50948 10.5599L4.80031 11.6039C4.15281 11.9939 3.59865 12.0599 3.24281 11.7899C3.10865 11.6879 3.00948 11.5499 2.94531 11.3699L10.0386 4.07394C10.307 3.79794 10.6861 3.67194 11.0536 3.73794L11.6428 3.83994C12.2611 3.94794 12.6753 4.23594 12.8095 4.65594C12.9378 5.07594 12.7628 5.56194 12.3195 6.01794L10.9078 7.47594Z" fill="#E76A43"/>
</svg>
