<svg width="44" height="44" viewBox="0 0 44 44" fill="none" xmlns="http://www.w3.org/2000/svg">
<path d="M10.8098 27.9398L14.6016 28.2669C15.1761 28.3111 15.6888 28.8237 15.733 29.3982L16.06 33.1901C16.2987 33.906 17.1207 34.2508 17.8101 33.9149L19.3746 33.1282C19.7547 32.9426 20.0729 32.43 20.0729 32.0057L20.0817 27.984C20.0729 27.6923 20.2408 27.2946 20.4441 27.0913L22.9632 24.5722C23.3344 24.201 23.7852 24.2982 23.9885 24.7844L26.4545 30.9981C26.8434 31.9703 27.7626 32.1648 28.5051 31.4223L29.6453 30.2821C30.2375 29.6899 30.4762 28.5674 30.158 27.7896L27.3472 20.7185C27.2677 20.5152 27.3295 20.2058 27.4886 20.0467L30.1403 17.3951C30.9711 16.5642 31.3424 14.9733 30.98 13.8507C30.8474 13.453 30.538 13.1436 30.1403 13.011C29.0178 12.6486 27.4179 13.0287 26.5871 13.8596L23.9354 16.5112C23.7763 16.6703 23.467 16.7322 23.2637 16.6526L16.2014 13.8507C15.4325 13.5237 14.3099 13.7623 13.7177 14.3545L12.5775 15.4947C11.8351 16.2372 12.0295 17.1564 13.0018 17.5454L19.2155 20.0114C19.7016 20.197 19.7988 20.6655 19.4276 21.0367L16.9085 23.5558C16.7053 23.7591 16.3075 23.927 16.0247 23.927L12.003 23.9358C11.5787 23.9358 11.0749 24.2452 10.8805 24.6341L10.0938 26.1986C9.74025 26.8703 10.0761 27.7012 10.8098 27.9398Z" stroke="white" stroke-width="1.5" stroke-linecap="round" stroke-linejoin="round"/>
</svg>
