<svg width="24" height="25" viewBox="0 0 24 25" fill="none" xmlns="http://www.w3.org/2000/svg">
<path d="M19.0703 19.5697C22.9803 15.6597 22.9803 9.32969 19.0703 5.42969" stroke="#00A3CB" stroke-width="1.5" stroke-linecap="round" stroke-linejoin="round"/>
<path d="M4.92957 5.42969C1.01957 9.33969 1.01957 15.6697 4.92957 19.5697" stroke="#00A3CB" stroke-width="1.5" stroke-linecap="round" stroke-linejoin="round"/>
<path d="M8.7002 21.9102C9.7702 22.2802 10.8802 22.4602 12.0002 22.4602C13.1202 22.4502 14.2302 22.2802 15.3002 21.9102" stroke="#00A3CB" stroke-width="1.5" stroke-linecap="round" stroke-linejoin="round"/>
<path d="M8.7002 3.09009C9.7702 2.72009 10.8802 2.54004 12.0002 2.54004C13.1202 2.54004 14.2302 2.72009 15.3002 3.09009" stroke="#00A3CB" stroke-width="1.5" stroke-linecap="round" stroke-linejoin="round"/>
<path d="M8.74023 12.5001V10.8302C8.74023 8.75016 10.2103 7.90014 12.0103 8.94014L13.4602 9.78017L14.9102 10.6201C16.7102 11.6601 16.7102 13.3602 14.9102 14.4002L13.4602 15.2401L12.0103 16.0802C10.2103 17.1202 8.74023 16.2701 8.74023 14.1901V12.5001Z" stroke="#00A3CB" stroke-width="1.5" stroke-miterlimit="10" stroke-linecap="round" stroke-linejoin="round"/>
</svg>
